<svg width="22" height="31" viewBox="0 0 22 31" fill="none" xmlns="http://www.w3.org/2000/svg">
<g clip-path="url(#clip0_266_7125)">
<path d="M18.8992 9.93708C18.7613 9.74973 18.5232 9.66465 18.2981 9.72266C17.7223 9.8709 16.6154 10.2843 15.799 11.3752C15.2082 12.1654 13.9582 11.6116 14.1443 10.6426C14.2285 10.2031 14.3939 9.71407 14.6728 9.17696C15.9657 6.68735 13.9853 4.78469 13.8439 4.65364C13.8384 4.64848 13.8328 4.64419 13.8263 4.63946C13.7602 4.59434 13.361 4.34555 12.9884 4.64633C12.9064 4.71251 10.9315 6.2654 8.93176 8.65661C6.77086 11.2407 4.81836 14.5248 4.81836 17.9061C4.81836 22.6447 8.67352 26.4994 13.4117 26.4994C18.1498 26.4994 22.005 22.6442 22.005 17.9061C22.005 15.0568 20.618 12.278 18.8979 9.93708H18.8992Z" fill="white"/>
<path d="M6.03129 8.64062H2.19805C1.61189 8.64062 1.13672 9.1158 1.13672 9.70195C1.13672 10.2881 1.61189 10.7633 2.19805 10.7633H6.03129C6.61744 10.7633 7.09262 10.2881 7.09262 9.70195C7.09262 9.1158 6.61744 8.64062 6.03129 8.64062Z" fill="white"/>
<path d="M3.75746 12.8828H1.06719C0.481032 12.8828 0.00585938 13.358 0.00585938 13.9441C0.00585938 14.5303 0.481032 15.0055 1.06719 15.0055H3.75746C4.34362 15.0055 4.81879 14.5303 4.81879 13.9441C4.81879 13.358 4.34362 12.8828 3.75746 12.8828Z" fill="white"/>
<path d="M3.22242 17.1289H2.84258C2.25642 17.1289 1.78125 17.6041 1.78125 18.1902C1.78125 18.7764 2.25642 19.2516 2.84258 19.2516H3.22242C3.80858 19.2516 4.28375 18.7764 4.28375 18.1902C4.28375 17.6041 3.80858 17.1289 3.22242 17.1289Z" fill="white"/>
<path d="M4.37602 21.3594H1.47734C0.891188 21.3594 0.416016 21.8345 0.416016 22.4207C0.416016 23.0069 0.891188 23.482 1.47734 23.482H4.37602C4.96217 23.482 5.43734 23.0069 5.43734 22.4207C5.43734 21.8345 4.96217 21.3594 4.37602 21.3594Z" fill="white"/>
<path d="M19.466 10.7449C19.2821 10.4703 19.093 10.2009 18.8992 9.93708C18.7613 9.74973 18.5232 9.66465 18.2981 9.72266C17.7223 9.8709 16.6154 10.2843 15.799 11.3752C15.2082 12.1654 13.9582 11.6116 14.1443 10.6426C14.2285 10.2031 14.3939 9.71407 14.6728 9.17696C15.9657 6.68735 13.9853 4.78469 13.8439 4.65364C13.8384 4.64848 13.8328 4.64419 13.8263 4.63946C13.7602 4.59434 13.361 4.34555 12.9884 4.64633C12.9064 4.71251 10.9315 6.2654 8.93176 8.65661C6.77086 11.2407 4.81836 14.5248 4.81836 17.9061C4.81836 19.1917 5.10281 20.412 5.61113 21.5086C6.26297 21.6194 6.93285 21.6774 7.61605 21.6774C13.8598 21.6774 18.9787 16.8636 19.4651 10.7449H19.466Z" fill="white"/>
<path d="M13.4239 23.4963C10.7229 23.4963 8.5332 21.3066 8.5332 18.6055C8.5332 15.9045 10.7229 13.7148 13.4239 13.7148C16.1249 13.7148 18.3146 15.9045 18.3146 18.6055C18.3146 21.3066 16.1249 23.4963 13.4239 23.4963Z" fill="#422659"/>
<path d="M15.3618 18.1585H13.9086V15.6135C13.9086 15.2921 13.6482 15.0312 13.3264 15.0312C13.0045 15.0312 12.7441 15.2916 12.7441 15.6135V18.7407C12.7441 19.0621 13.0045 19.323 13.3264 19.323H15.3618C15.6832 19.323 15.944 19.0626 15.944 18.7407C15.944 18.4189 15.6836 18.1585 15.3618 18.1585Z" fill="white"/>
</g>
<defs>
<clipPath id="clip0_266_7125">
<rect width="22" height="22" fill="white" transform="translate(0 4.5)"/>
</clipPath>
</defs>
</svg>
