<svg width="15" height="14" viewBox="0 0 15 14" fill="none" xmlns="http://www.w3.org/2000/svg">
<path d="M14.3327 7.00002C14.3327 6.49376 13.9223 6.08335 13.416 6.08335H5.59107C4.70016 6.08335 4.25399 5.00621 4.88396 4.37625L7.65018 1.61002C8.00925 1.25095 8.00822 0.668457 7.64788 0.310653C7.28934 -0.0453671 6.71038 -0.0443439 6.3531 0.312941L0.373122 6.29291C-0.0174025 6.68344 -0.0174019 7.3166 0.373122 7.70713L6.35281 13.6868C6.70988 14.0439 7.28881 14.0439 7.64589 13.6868C8.00274 13.33 8.003 12.7515 7.64647 12.3943L4.88027 9.62316C4.25117 8.99294 4.69754 7.91669 5.58801 7.91669H13.416C13.9223 7.91669 14.3327 7.50628 14.3327 7.00002Z" fill="#495F6A"/>
</svg>
