<svg width="18" height="18" viewBox="0 0 18 18" fill="none" xmlns="http://www.w3.org/2000/svg">
<path d="M5.66602 14C4.74935 14 4.00768 14.75 4.00768 15.6667C4.00768 16.5833 4.74935 17.3333 5.66602 17.3333C6.58268 17.3333 7.33268 16.5833 7.33268 15.6667C7.33268 14.75 6.58268 14 5.66602 14ZM1.49935 0.666656C1.03911 0.666656 0.666016 1.03975 0.666016 1.49999C0.666016 1.96023 1.03911 2.33332 1.49935 2.33332H1.70021C2.08647 2.33332 2.4382 2.55578 2.60373 2.90478L5.11324 8.19566C5.25103 8.48617 5.24073 8.82521 5.08556 9.10681L4.20768 10.7C4.07435 10.9333 3.99935 11.2083 3.99935 11.5C3.99935 12.4167 4.74935 13.1667 5.66602 13.1667H14.8327C15.2929 13.1667 15.666 12.7936 15.666 12.3333C15.666 11.8731 15.2929 11.5 14.8327 11.5H6.01602C5.9165 11.5 5.83517 11.4333 5.81341 11.3413C5.80577 11.3089 5.81176 11.2754 5.81982 11.2431C5.82836 11.209 5.8413 11.176 5.85832 11.1452L6.29742 10.35C6.47341 10.0312 6.80874 9.83332 7.17284 9.83332H12.791C13.416 9.83332 13.966 9.49166 14.2493 8.97499L17.2327 3.56666C17.2993 3.44999 17.3327 3.30832 17.3327 3.16666C17.3327 2.70832 16.9577 2.33332 16.4993 2.33332H4.80929C4.42176 2.33332 4.06911 2.10941 3.90427 1.75868L3.6611 1.2413C3.49625 0.890566 3.14361 0.666656 2.75607 0.666656H1.49935ZM13.9993 14C13.0827 14 12.341 14.75 12.341 15.6667C12.341 16.5833 13.0827 17.3333 13.9993 17.3333C14.916 17.3333 15.666 16.5833 15.666 15.6667C15.666 14.75 14.916 14 13.9993 14Z" fill="white"/>
</svg>
