<svg width="63" height="32" viewBox="0 0 63 32" fill="none" xmlns="http://www.w3.org/2000/svg">
<path opacity="0.1" d="M26.7791 1.52815C29.7282 -0.0511792 33.2718 -0.0511801 36.2209 1.52815L47.1555 7.38388L57.694 13.9257C60.5363 15.69 62.3081 18.7588 62.4149 22.1025L62.811 34.5L62.4149 46.8975C62.3081 50.2412 60.5363 53.31 57.694 55.0743L47.1555 61.6161L36.2209 67.4718C33.2718 69.0512 29.7282 69.0512 26.7791 67.4718L15.8445 61.6161L5.30599 55.0743C2.46369 53.31 0.691918 50.2412 0.58509 46.8975L0.188999 34.5L0.58509 22.1025C0.691918 18.7588 2.46368 15.69 5.30599 13.9257L15.8445 7.38388L26.7791 1.52815Z" fill="#FFB400"/>
</svg>
