<svg width="32" height="32" viewBox="0 0 32 32" fill="none" xmlns="http://www.w3.org/2000/svg">
<g clip-path="url(#clip0_371_8794)">
<path d="M11.9758 21.0795C11.7305 21.0795 11.52 20.9917 11.3444 20.8161C11.1687 20.6404 11.0809 20.4299 11.0809 20.1847C11.0809 19.9394 11.1687 19.7289 11.3444 19.5533C11.52 19.3776 11.7305 19.2898 11.9758 19.2898C12.221 19.2898 12.4315 19.3776 12.6072 19.5533C12.7828 19.7289 12.8707 19.9394 12.8707 20.1847C12.8707 20.3471 12.8292 20.4962 12.7464 20.6321C12.6668 20.768 12.5591 20.8774 12.4232 20.9602C12.2906 21.0398 12.1415 21.0795 11.9758 21.0795ZM16.0012 21.0795C15.756 21.0795 15.5455 20.9917 15.3699 20.8161C15.1942 20.6404 15.1064 20.4299 15.1064 20.1847C15.1064 19.9394 15.1942 19.7289 15.3699 19.5533C15.5455 19.3776 15.756 19.2898 16.0012 19.2898C16.2465 19.2898 16.457 19.3776 16.6326 19.5533C16.8083 19.7289 16.8961 19.9394 16.8961 20.1847C16.8961 20.3471 16.8547 20.4962 16.7718 20.6321C16.6923 20.768 16.5846 20.8774 16.4487 20.9602C16.3161 21.0398 16.167 21.0795 16.0012 21.0795ZM20.0267 21.0795C19.7814 21.0795 19.571 20.9917 19.3953 20.8161C19.2197 20.6404 19.1318 20.4299 19.1318 20.1847C19.1318 19.9394 19.2197 19.7289 19.3953 19.5533C19.571 19.3776 19.7814 19.2898 20.0267 19.2898C20.272 19.2898 20.4824 19.3776 20.6581 19.5533C20.8338 19.7289 20.9216 19.9394 20.9216 20.1847C20.9216 20.3471 20.8802 20.4962 20.7973 20.6321C20.7178 20.768 20.61 20.8774 20.4742 20.9602C20.3416 21.0398 20.1924 21.0795 20.0267 21.0795Z" fill="#1F292D"/>
</g>
<defs>
<clipPath id="clip0_371_8794">
<rect width="32" height="32" fill="white"/>
</clipPath>
</defs>
</svg>
